<svg xmlns:dc="http://purl.org/dc/elements/1.1/" xmlns:cc="http://creativecommons.org/ns#" xmlns:rdf="http://www.w3.org/1999/02/22-rdf-syntax-ns#" xmlns:svg="http://www.w3.org/2000/svg" xmlns="http://www.w3.org/2000/svg" xmlns:sodipodi="http://sodipodi.sourceforge.net/DTD/sodipodi-0.dtd" xmlns:inkscape="http://www.inkscape.org/namespaces/inkscape" version="1.1" x="0px" y="0px" viewBox="0 0 100 125"><g transform="translate(0,-952.36218)"><path style="text-indent:0;text-transform:none;direction:ltr;block-progression:tb;baseline-shift:baseline;color:#000000;enable-background:accumulate;" d="m 50,958.36217 c -24.26811,0 -44.0000069,19.69189 -44.0000069,44.00003 0,24.27 19.7300189,44 44.0000069,44 24.269987,0 44.000007,-19.73 44.000007,-44 0,-24.30814 -19.731933,-44.00003 -44.000007,-44.00003 z m 0,3.35897 c 22.454999,0 40.640987,18.14669 40.640987,40.64106 0,22.4531 -18.187901,40.641 -40.640987,40.641 -22.453122,0 -40.6410231,-18.1879 -40.6410231,-40.641 0,-22.49437 18.1859881,-40.64106 40.6410231,-40.64106 z" fill="#000000" fill-opacity="1" fill-rule="evenodd" stroke="none" marker="none" visibility="visible" display="inline" overflow="visible"/><path style="text-indent:0;text-transform:none;direction:ltr;block-progression:tb;baseline-shift:baseline;color:#000000;enable-background:accumulate;" d="m 33.056685,983.71335 a 1.6792381,1.6792381 0 0 0 -1.189346,2.9034 l 15.741283,15.74125 -15.741283,15.7413 a 1.6819829,1.6819829 0 1 0 2.378657,2.3787 l 15.741283,-15.7413 15.77622,15.7413 a 1.6792701,1.6792701 0 1 0 2.343756,-2.3787 L 52.365972,1002.358 68.107255,986.61675 a 1.6792381,1.6792381 0 0 0 -1.189346,-2.9034 1.6792381,1.6792381 0 0 0 -1.15441,0.52471 l -15.77622,15.74129 -15.741283,-15.74129 a 1.6792381,1.6792381 0 0 0 -1.189311,-0.52471 z" fill="#000000" fill-opacity="1" fill-rule="evenodd" stroke="none" marker="none" visibility="visible" display="inline" overflow="visible"/></g></svg>