<svg id="Capa_1" enable-background="new 0 0 512 512" height="512" viewBox="0 0 512 512" width="512" xmlns="http://www.w3.org/2000/svg"><g id="XMLID_1231_"><path id="XMLID_1534_" d="m171 502 85-160 85.001 160z" fill="#c68a65"/><path id="XMLID_1485_" d="m388.001 239.873c-11.046 0-20 8.954-20 20v60h40v-60c0-11.045-8.954-20-20-20z" fill="#33d6f5"/><path id="XMLID_1484_" d="m124 239.873c11.046 0 20 8.954 20 20v60h-40v-60c0-11.045 8.954-20 20-20z" fill="#33d6f5"/><path id="XMLID_1460_" d="m216 363.873h-184c-12.15 0-22-9.85-22-22 0-12.15 9.85-22 22-22h184 80 184.001c12.15 0 22 9.85 22 22 0 12.15-9.85 22-22 22h-184.001z" fill="#ffee80"/><circle id="XMLID_2181_" cx="256" cy="342" fill="#ff7b79" r="40"/><path id="XMLID_2205_" d="m177.75 62.417c-5.9 0-11.521 1.195-16.634 3.355-1.185-31.002-26.686-55.772-57.977-55.772-30.745 0-55.9 23.912-57.893 54.153-19.953 3.025-35.244 20.25-35.244 41.048 0 22.931 18.589 41.521 41.52 41.521 10.758 0 20.559-4.092 27.935-10.803 4.206 13.577 16.861 23.44 31.821 23.44 16.496 0 30.182-11.994 32.835-27.736 7.833 9.959 19.984 16.362 33.637 16.362 23.629 0 42.784-19.155 42.784-42.784s-19.155-42.784-42.784-42.784z" fill="#ccf5fc"/><path id="XMLID_2207_" d="m463.593 99.361c-5.296 0-10.342 1.073-14.933 3.011-1.064-27.831-23.957-50.067-52.048-50.067-27.6 0-50.183 21.467-51.972 48.614-17.912 2.716-31.64 18.179-31.64 36.85 0 20.586 16.688 37.274 37.274 37.274 9.658 0 18.457-3.673 25.078-9.698 3.776 12.189 15.137 21.042 28.566 21.042 14.809 0 27.095-10.768 29.477-24.899 7.032 8.94 17.94 14.689 30.197 14.689 21.212 0 38.408-17.196 38.408-38.408s-17.195-38.408-38.407-38.408z" fill="#ccf5fc"/><g id="XMLID_787_"><path id="XMLID_801_" d="m256 352c2.63 0 5.21-1.07 7.069-2.931 1.861-1.859 2.931-4.439 2.931-7.069s-1.07-5.21-2.931-7.07c-1.859-1.86-4.439-2.93-7.069-2.93s-5.21 1.069-7.07 2.93c-1.86 1.86-2.93 4.44-2.93 7.07s1.07 5.21 2.93 7.069c1.861 1.861 4.44 2.931 7.07 2.931z"/><path id="XMLID_1219_" d="m480.001 309.873h-62.001v-50c0-16.542-13.457-30-29.999-30h-.001c-16.542 0-30 13.458-30 30v50h-63.727c-9.179-10.917-22.926-17.873-38.273-17.873s-29.094 6.956-38.273 17.873h-63.727v-50c0-16.542-13.458-30-30-30s-30 13.458-30 30v50h-62c-17.645 0-32 14.355-32 32s14.355 32 32 32h47c5.523 0 10-4.478 10-10s-4.477-10-10-10h-47c-6.617 0-12-5.383-12-12s5.383-12 12-12h175.495c-.971 3.885-1.495 7.946-1.495 12.127 0 4.091.505 8.065 1.436 11.873h-38.436c-5.523 0-10 4.478-10 10s4.477 10 10 10h48.507c2.016 2.43 4.255 4.668 6.689 6.68l-59.206 111.447h-32.052c-5.523 0-10 4.478-10 10s4.477 10 10 10h246.126c5.522 0 10-4.478 10-10s-4.478-10-10-10h-32.052l-59.207-111.448c2.434-2.011 4.673-4.249 6.688-6.679h185.508c17.645 0 31.999-14.355 31.999-32s-14.354-32-31.999-32zm-366.001 0v-50c0-5.514 4.486-10 10-10s10 4.486 10 10v50zm264-50c0-5.514 4.486-10 10.001-10 5.514 0 9.999 4.486 9.999 10v50h-20zm-122 52.127c16.542 0 30 13.458 30 30s-13.458 30-30 30-30-13.458-30-30 13.458-30 30-30zm68.366 180h-136.73l54.215-102.052c4.49 1.327 9.235 2.052 14.149 2.052s9.66-.725 14.149-2.052zm155.635-138.127h-175.437c.932-3.808 1.436-7.781 1.436-11.873 0-4.182-.523-8.242-1.495-12.127h175.496c6.616 0 11.999 5.383 11.999 12s-5.382 12-11.999 12z"/><path id="XMLID_1341_" d="m51.521 156.722c8.497 0 16.756-2.081 24.124-5.989 7.914 11.488 21.052 18.626 35.632 18.626 15.439 0 29.151-8.033 36.832-20.462 8.628 5.877 18.881 9.088 29.64 9.088 29.105 0 52.784-23.679 52.784-52.783 0-29.105-23.679-52.784-52.784-52.784-2.778 0-5.524.213-8.228.636-6.79-30.575-33.902-53.054-66.382-53.054-33.171 0-61.252 24.062-66.961 56.018-21.08 6.621-36.177 26.554-36.177 49.184 0 28.408 23.112 51.52 51.52 51.52zm-4.777-82.682c4.643-.704 8.17-4.543 8.479-9.229 1.656-25.127 22.703-44.811 47.916-44.811 25.918 0 46.996 20.272 47.984 46.153.125 3.282 1.854 6.294 4.626 8.057 2.772 1.762 6.232 2.052 9.258.773 4.031-1.703 8.318-2.566 12.742-2.566 18.077 0 32.784 14.707 32.784 32.784s-14.707 32.783-32.784 32.783c-10.111 0-19.506-4.572-25.777-12.545-2.446-3.11-6.498-4.483-10.332-3.507-3.834.978-6.731 4.125-7.389 8.027-1.895 11.24-11.556 19.398-22.974 19.398-10.281 0-19.23-6.591-22.269-16.399-1.012-3.267-3.623-5.79-6.923-6.689-.868-.236-1.751-.352-2.629-.352-2.458 0-4.867.907-6.731 2.604-5.811 5.288-13.341 8.2-21.205 8.2-17.38 0-31.521-14.14-31.521-31.521.002-15.452 11.499-28.847 26.745-31.16z"/><path id="XMLID_1365_" d="m350.275 185.042c7.489 0 14.779-1.763 21.335-5.08 7.339 10.152 19.191 16.425 32.31 16.425 13.852 0 26.194-7.019 33.367-17.962 7.727 5.02 16.801 7.752 26.307 7.752 26.691 0 48.407-21.716 48.407-48.408s-21.716-48.408-48.407-48.408c-2.225 0-4.428.148-6.602.444-6.535-27.434-31.062-47.5-60.379-47.5-30.065 0-55.551 21.659-61.008 50.524-19.033 6.26-32.605 24.388-32.605 44.94 0 26.066 21.208 47.273 47.275 47.273zm-4.136-74.236c4.643-.704 8.17-4.543 8.479-9.229 1.452-22.022 19.898-39.272 41.994-39.272 22.716 0 41.188 17.768 42.055 40.449.126 3.282 1.855 6.294 4.627 8.057 2.772 1.764 6.231 2.054 9.259.772 3.491-1.475 7.205-2.223 11.04-2.223 15.664 0 28.407 12.744 28.407 28.408s-12.743 28.408-28.407 28.408c-8.761 0-16.902-3.963-22.337-10.872-2.448-3.111-6.504-4.485-10.332-3.507-3.835.978-6.731 4.125-7.39 8.027-1.617 9.597-9.866 16.562-19.615 16.562-8.779 0-16.42-5.627-19.014-14.002-1.013-3.267-3.623-5.79-6.923-6.689-.868-.236-1.752-.352-2.629-.352-2.459 0-4.867.907-6.731 2.604-5.027 4.575-11.544 7.095-18.348 7.095-15.039 0-27.274-12.234-27.274-27.273 0-13.371 9.948-24.963 23.139-26.963z"/><path id="XMLID_1366_" d="m131.07 370.94c1.86-1.859 2.93-4.439 2.93-7.069s-1.07-5.21-2.93-7.07-4.44-2.93-7.07-2.93-5.21 1.069-7.07 2.93c-1.86 1.86-2.93 4.44-2.93 7.07s1.07 5.21 2.93 7.069c1.86 1.87 4.44 2.931 7.07 2.931 2.63-.001 5.21-1.061 7.07-2.931z"/></g></g></svg>